<svg width="343" height="219" viewBox="0 0 343 219" fill="none" xmlns="http://www.w3.org/2000/svg">
<g clip-path="url(#clip0_4330_249)">
<rect x="0.865234" y="0.0958252" width="341.746" height="218.493" rx="6.72287" fill="url(#paint0_linear_4330_249)"/>
<path opacity="0.4" d="M69.489 102.62C44.3086 102.516 20.1137 112.401 2.20891 130.109C-15.6958 147.817 -25.8492 171.904 -26.0263 197.088C-26.0444 209.511 -23.582 221.812 -18.7832 233.27C-13.9844 244.728 -6.94611 255.113 1.91897 263.814C5.67346 267.503 10.7266 269.571 15.9902 269.571C21.2538 269.571 26.3069 267.503 30.0614 263.814C31.9089 261.995 33.3761 259.827 34.3776 257.436C35.3791 255.045 35.8946 252.479 35.8946 249.886C35.8946 247.294 35.3791 244.728 34.3776 242.336C33.3761 239.945 31.9089 237.778 30.0614 235.959C24.8956 230.877 20.7928 224.818 17.9923 218.134C15.1918 211.45 13.7496 204.276 13.7496 197.029C13.7496 189.782 15.1918 182.607 17.9923 175.924C20.7928 169.24 24.8956 163.18 30.0614 158.099C40.5619 147.766 54.7022 141.975 69.4326 141.975C84.1631 141.975 98.3033 147.766 108.804 158.099C113.97 163.18 118.072 169.24 120.873 175.924C123.673 182.607 125.116 189.782 125.116 197.029C125.116 204.276 123.673 211.45 120.873 218.134C118.072 224.818 113.97 230.877 108.804 235.959C106.957 237.777 105.489 239.944 104.488 242.335C103.486 244.726 102.971 247.292 102.971 249.884C102.971 252.476 103.486 255.042 104.488 257.432C105.489 259.823 106.957 261.99 108.804 263.808C112.558 267.498 117.611 269.565 122.875 269.565C128.139 269.565 133.192 267.498 136.946 263.808C145.833 255.118 152.894 244.739 157.714 233.282C162.535 221.824 165.016 209.519 165.015 197.088C164.838 171.902 154.683 147.814 136.776 130.105C118.869 112.396 94.6712 102.513 69.489 102.62Z" fill="url(#paint1_linear_4330_249)"/>
<path d="M317.384 -59.9581C295.886 -60.0564 275.226 -51.6328 259.937 -36.5352C244.648 -21.4376 235.979 -0.89888 235.831 20.5753C235.831 42.1804 244.423 62.9006 259.717 78.1777C275.011 93.4548 295.755 102.037 317.384 102.037C339.013 102.037 359.756 93.4548 375.051 78.1777C390.345 62.9006 398.937 42.1804 398.937 20.5753C398.789 -0.89888 390.12 -21.4376 374.831 -36.5352C359.542 -51.6328 338.882 -60.0564 317.384 -59.9581ZM317.384 63.1094C308.982 63.0141 300.796 60.4382 293.857 55.7061C286.917 50.9739 281.534 44.297 278.385 36.5157C275.236 28.7344 274.461 20.1964 276.159 11.9765C277.857 3.75661 281.952 -3.77791 287.927 -9.6787C293.902 -15.5795 301.491 -19.5828 309.739 -21.1848C317.987 -22.7868 326.525 -21.9158 334.279 -18.6816C342.032 -15.4473 348.655 -9.99429 353.312 -3.00884C357.97 3.9766 360.455 12.1823 360.455 20.5753C360.423 26.1931 359.283 31.7496 357.101 36.9274C354.919 42.1053 351.738 46.8032 347.738 50.7529C343.739 54.7026 339 57.8267 333.792 59.9468C328.583 62.0669 323.008 63.1416 317.384 63.1094Z" fill="url(#paint2_linear_4330_249)"/>
<g opacity="0.6">
<path d="M93.8753 111.805C95.0205 110.66 95.6639 109.107 95.6639 107.487C95.6639 105.868 95.0205 104.315 93.8753 103.169" stroke="white" stroke-width="2.8012" stroke-linecap="round" stroke-linejoin="round"/>
<path d="M98.5739 114.671C100.201 112.63 101.086 110.096 101.086 107.486C101.085 104.876 100.199 102.343 98.5721 100.301" stroke="white" stroke-width="2.8012" stroke-linecap="round" stroke-linejoin="round"/>
<path d="M102.716 117.497C104.895 114.632 106.08 111.135 106.091 107.535C106.101 103.936 104.937 100.432 102.774 97.5546" stroke="white" stroke-width="2.8012" stroke-linecap="round" stroke-linejoin="round"/>
<path d="M107.342 94.6132C110.138 98.4766 111.601 103.146 111.508 107.914C111.416 112.683 109.773 117.291 106.828 121.043" stroke="white" stroke-width="2.8012" stroke-linecap="round" stroke-linejoin="round"/>
</g>
<rect x="37.5607" y="89.482" width="47.4803" height="34.4469" rx="7.00299" fill="url(#paint3_linear_4330_249)" stroke="url(#paint4_linear_4330_249)" stroke-width="0.560239"/>
<mask id="mask0_4330_249" style="mask-type:alpha" maskUnits="userSpaceOnUse" x="37" y="89" width="48" height="35">
<rect x="38.1209" y="90.0423" width="46.3598" height="33.3264" rx="6.44275" fill="#DCD59E" stroke="black" stroke-width="0.560239"/>
</mask>
<g mask="url(#mask0_4330_249)">
<path opacity="0.5" fill-rule="evenodd" clip-rule="evenodd" d="M62.4059 90.8722C61.9957 90.0367 60.8046 90.0367 60.3943 90.8722L56.1782 99.459C56.1782 99.459 58.267 105.767 56.1782 112.962L60.375 122.473C60.7681 123.363 62.0321 123.363 62.4252 122.473L66.622 112.962C66.622 112.962 64.5333 109.052 66.622 99.459L62.4059 90.8722Z" stroke="#BFB985" stroke-width="0.728311" stroke-linejoin="bevel"/>
<path opacity="0.5" d="M37.3794 99.4131H56.0458" stroke="#BFB985" stroke-width="0.728311" stroke-linejoin="bevel"/>
<path opacity="0.5" d="M66.1787 99.4131H85.3784" stroke="#BFB985" stroke-width="0.728311" stroke-linejoin="bevel"/>
<path opacity="0.5" d="M37.3794 112.858H56.0458" stroke="#BFB985" stroke-width="0.728311" stroke-linejoin="bevel"/>
<path opacity="0.5" d="M66.1787 112.858H85.3784" stroke="#BFB985" stroke-width="0.728311" stroke-linejoin="bevel"/>
</g>
<path fill-rule="evenodd" clip-rule="evenodd" d="M69.6128 26.4429C69.8712 26.1773 70.0742 25.8629 70.21 25.518C70.3457 25.1732 70.4114 24.8047 70.4033 24.4342C70.3952 24.0637 70.3135 23.6985 70.1628 23.3599C70.0122 23.0213 69.7957 22.7161 69.5259 22.462C67.8193 20.8443 65.6782 19.759 63.3646 19.3387C61.051 18.9185 58.665 19.1816 56.4986 20.0959C54.3321 21.0101 52.479 22.5359 51.1659 24.4866C49.8528 26.4373 49.1366 28.7284 49.1049 31.0797C49.1366 33.4309 49.8528 35.722 51.1659 37.6727C52.479 39.6234 54.3321 41.1492 56.4986 42.0635C58.665 42.9777 61.051 43.2408 63.3646 42.8206C65.6782 42.4004 67.8193 41.315 69.5259 39.6973C69.7957 39.4432 70.0122 39.138 70.1628 38.7994C70.3135 38.4608 70.3952 38.0956 70.4033 37.7251C70.4114 37.3546 70.3457 36.9862 70.21 36.6413C70.0742 36.2965 69.8712 35.9821 69.6128 35.7165C69.0872 35.1774 68.3708 34.8664 67.6181 34.8504C66.8653 34.8345 66.1365 35.1149 65.5885 35.6312C64.3729 36.7783 62.7582 37.4069 61.087 37.3836C59.4157 37.3603 57.8192 36.687 56.636 35.5064C56.0538 34.9256 55.5919 34.2356 55.2767 33.476C54.9616 32.7164 54.7993 31.9021 54.7993 31.0797C54.7993 30.2573 54.9616 29.443 55.2767 28.6834C55.5919 27.9237 56.0538 27.2338 56.636 26.6529C57.8192 25.4724 59.4157 24.7991 61.087 24.7758C62.7582 24.7525 64.3729 25.3811 65.5885 26.5282C66.1365 27.0446 66.8655 27.325 67.6183 27.3088C68.3711 27.2927 69.0874 26.9814 69.6128 26.4421V26.4429ZM22.8309 23.0757C25.3914 20.5439 28.8514 19.1306 32.4523 19.1458C36.0532 19.1306 39.5131 20.5439 42.0736 23.0757C44.6342 25.6076 46.0863 29.0514 46.1116 32.6522C46.1117 34.4293 45.7566 36.1885 45.0673 37.8265C44.3781 39.4645 43.3684 40.9483 42.0977 42.1906C41.5609 42.7182 40.8383 43.0137 40.0856 43.0137C39.3329 43.0137 38.6103 42.7182 38.0734 42.1906C37.8092 41.9306 37.5994 41.6207 37.4562 41.2788C37.313 40.937 37.2393 40.57 37.2393 40.1994C37.2393 39.8287 37.313 39.4618 37.4562 39.1199C37.5994 38.7781 37.8092 38.4681 38.0734 38.2082C38.8123 37.4816 39.399 36.6152 39.7996 35.6595C40.2001 34.7038 40.4064 33.678 40.4064 32.6418C40.4064 31.6055 40.2001 30.5797 39.7996 29.624C39.399 28.6683 38.8123 27.8019 38.0734 27.0753C36.5717 25.598 34.5496 24.7701 32.443 24.7701C30.3365 24.7701 28.3143 25.598 26.8126 27.0753C26.0738 27.8019 25.487 28.6683 25.0865 29.624C24.6859 30.5797 24.4796 31.6055 24.4796 32.6418C24.4796 33.678 24.6859 34.7038 25.0865 35.6595C25.487 36.6152 26.0738 37.4816 26.8126 38.2082C27.0768 38.4681 27.2866 38.7781 27.4298 39.1199C27.573 39.4618 27.6468 39.8287 27.6468 40.1994C27.6468 40.57 27.573 40.937 27.4298 41.2788C27.2866 41.6207 27.0768 41.9306 26.8126 42.1906C26.2757 42.7182 25.5532 43.0137 24.8005 43.0137C24.0478 43.0137 23.3252 42.7182 22.7883 42.1906C21.521 40.9467 20.5147 39.4623 19.8287 37.8244C19.1426 36.1864 18.7905 34.428 18.793 32.6522C18.8183 29.0514 20.2704 25.6076 22.8309 23.0757ZM84.8009 19.146C81.6183 19.1315 78.5599 20.3799 76.2966 22.6174C74.0333 24.8549 72.7499 27.8988 72.728 31.0813C72.728 34.2832 73.9999 37.354 76.2641 39.6181C78.5282 41.8823 81.599 43.1542 84.8009 43.1542C88.0029 43.1542 91.0736 41.8823 93.3377 39.6181C95.6018 37.354 96.8738 34.2832 96.8738 31.0813C96.8519 27.8988 95.5685 24.8549 93.3052 22.6174C91.0419 20.3799 87.9835 19.1315 84.8009 19.146ZM84.8009 37.385C83.5571 37.3708 82.3453 36.9891 81.318 36.2878C80.2907 35.5865 79.4938 34.5969 79.0276 33.4437C78.5614 32.2905 78.4467 31.0252 78.6981 29.8069C78.9494 28.5887 79.5556 27.4721 80.4402 26.5976C81.3247 25.7231 82.4482 25.1298 83.6692 24.8923C84.8902 24.6549 86.1542 24.784 87.302 25.2633C88.4498 25.7426 89.4301 26.5508 90.1197 27.5861C90.8092 28.6213 91.1771 29.8374 91.177 31.0813C91.1723 31.9139 91.0036 32.7374 90.6806 33.5047C90.3576 34.2721 89.8866 34.9684 89.2945 35.5537C88.7024 36.1391 88.0009 36.6021 87.2299 36.9163C86.4588 37.2305 85.6335 37.3897 84.8009 37.385ZM113.405 19.146C109.804 19.131 106.344 20.5443 103.784 23.0762C101.223 25.608 99.7715 29.0517 99.7462 32.6524C99.7436 34.4285 100.096 36.1873 100.782 37.8255C101.468 39.4637 102.475 40.9484 103.742 42.1924C104.279 42.7199 105.002 43.0155 105.754 43.0155C106.507 43.0155 107.23 42.7199 107.767 42.1924C108.031 41.9324 108.241 41.6225 108.384 41.2806C108.527 40.9388 108.601 40.5718 108.601 40.2012C108.601 39.8305 108.527 39.4636 108.384 39.1217C108.241 38.7799 108.031 38.4699 107.767 38.21C107.028 37.4834 106.441 36.6171 106.041 35.6614C105.64 34.7058 105.434 33.6801 105.434 32.6439C105.434 31.6078 105.64 30.582 106.041 29.6264C106.441 28.6708 107.028 27.8045 107.767 27.0779C109.268 25.6006 111.29 24.7727 113.397 24.7727C115.503 24.7727 117.525 25.6006 119.027 27.0779C119.765 27.8045 120.352 28.6708 120.752 29.6264C121.153 30.582 121.359 31.6078 121.359 32.6439C121.359 33.6801 121.153 34.7058 120.752 35.6614C120.352 36.6171 119.765 37.4834 119.027 38.21C118.762 38.4699 118.553 38.7797 118.409 39.1215C118.266 39.4633 118.192 39.8302 118.192 40.2008C118.192 40.5714 118.266 40.9382 118.409 41.28C118.553 41.6218 118.762 41.9317 119.027 42.1916C119.564 42.7191 120.286 43.0147 121.039 43.0147C121.791 43.0147 122.514 42.7191 123.051 42.1916C124.322 40.9492 125.331 39.4653 126.021 37.8271C126.71 36.189 127.065 34.4296 127.065 32.6524C127.039 29.0514 125.587 25.6075 123.027 23.0756C120.466 20.5437 117.006 19.1306 113.405 19.146ZM64.0227 31.065C64.0313 32.619 62.7641 33.8858 61.1923 33.8945C59.6206 33.9032 58.3394 32.6505 58.3308 31.0965C58.3222 29.5425 59.5894 28.2757 61.1612 28.267C62.733 28.2583 64.0141 29.511 64.0227 31.065Z" fill="white"/>
<path d="M142.926 28.9264H137.344V42.6234H139.785V37.7132H142.926C145.967 37.7132 147.267 35.5463 147.267 33.3198C147.267 31.133 145.967 28.9264 142.926 28.9264ZM142.806 35.5264H139.785V31.0933H142.866C144.266 31.0933 144.827 32.2463 144.827 33.3198C144.827 34.433 144.246 35.5264 142.806 35.5264Z" fill="white"/>
<path d="M157.946 37.8921C157.946 34.9897 155.845 33.1409 153.164 33.1409C150.503 33.1409 148.263 35.0095 148.263 37.9716C148.263 40.874 150.383 42.8222 153.184 42.8222C154.885 42.8222 156.525 42.1066 157.386 40.7548L155.845 39.5819C155.285 40.3373 154.325 40.7349 153.304 40.7349C151.924 40.7349 150.924 40.0788 150.664 38.7867H157.886C157.926 38.4487 157.946 38.1505 157.946 37.8921ZM150.664 37.1764C150.944 35.765 151.944 35.1686 153.204 35.1686C154.505 35.1686 155.485 35.9041 155.625 37.1764H150.664Z" fill="white"/>
<path d="M161.378 31.471C162.218 31.471 162.898 30.8547 162.898 30.0595C162.898 29.2445 162.218 28.6481 161.378 28.6481C160.558 28.6481 159.877 29.2445 159.877 30.0595C159.877 30.8547 160.558 31.471 161.378 31.471ZM157.537 47.156H158.757C161.378 47.156 162.538 45.5457 162.538 42.9614V33.3397L160.218 33.3397V42.9614C160.238 44.015 159.897 45.009 158.677 45.009H157.537V47.156Z" fill="white"/>
<path d="M169.675 42.8222C172.336 42.8222 174.657 40.8939 174.657 37.9517C174.657 35.0095 172.336 33.1409 169.675 33.1409C167.014 33.1409 164.713 35.0095 164.713 37.9517C164.713 40.8939 167.014 42.8222 169.675 42.8222ZM169.675 40.6752C168.235 40.6752 167.054 39.5819 167.054 37.9517C167.054 36.3614 168.235 35.2879 169.675 35.2879C171.115 35.2879 172.316 36.3614 172.316 37.9517C172.316 39.5819 171.115 40.6752 169.675 40.6752Z" fill="white"/>
<path d="M181.806 33.3397H179.825V29.9204H177.505V33.3397H175.824V35.1885H177.505V42.6234H179.825V35.1885H181.806V33.3397Z" fill="white"/>
<path d="M190.547 33.3397V34.5722C189.907 33.5981 188.607 33.1409 187.426 33.1409C184.965 33.1409 182.845 34.9897 182.845 37.9716C182.845 40.9337 184.985 42.8222 187.446 42.8222C188.587 42.8222 189.907 42.365 190.547 41.371V42.6234H192.868V33.3397H190.547ZM187.806 40.6554C186.366 40.6554 185.185 39.5023 185.185 37.9517C185.185 36.4011 186.366 35.2879 187.806 35.2879C189.147 35.2879 190.507 36.3216 190.507 37.9517C190.507 39.5819 189.227 40.6554 187.806 40.6554Z" fill="white"/>
<path d="M306.886 182.439C305.324 181.882 303.673 181.602 302.01 181.614C296.632 181.614 292.834 184.265 292.807 188.072C292.774 190.869 295.506 192.445 297.573 193.379C299.694 194.34 300.403 194.945 300.396 195.804C300.383 197.11 298.703 197.702 297.14 197.702C294.992 197.702 293.819 197.409 292.014 196.676L291.345 196.37L290.583 200.752C291.89 201.285 294.246 201.742 296.679 201.782C302.396 201.782 306.134 199.146 306.177 195.096C306.224 192.862 304.746 191.175 301.633 189.78C299.741 188.875 298.568 188.269 298.568 187.351C298.568 186.539 299.573 185.67 301.674 185.67C303.072 185.637 304.461 185.894 305.75 186.424L306.255 186.644L307.018 182.41L306.886 182.439ZM320.841 181.969H316.64C315.332 181.969 314.348 182.321 313.776 183.591L305.697 201.509H311.414L312.556 198.571L319.534 198.577C319.698 199.265 320.202 201.509 320.202 201.509H325.244L320.841 181.969ZM285.074 181.804H290.522L287.114 201.354H281.673L285.074 181.798V181.804ZM271.244 192.579L271.808 195.294L277.132 181.969H282.903L274.329 201.482H268.572L263.867 184.96C263.79 184.687 263.611 184.453 263.366 184.305C261.67 183.447 259.873 182.796 258.015 182.367L258.089 181.956H266.858C268.048 182.002 269.005 182.367 269.325 183.611L271.24 192.589V192.579H271.244ZM314.119 194.573L316.29 189.105C316.263 189.164 316.737 187.977 317.013 187.243L317.386 188.931L318.646 194.57H314.116V194.573H314.119Z" fill="white"/>
<path d="M22.8536 191.75C23.8486 191.75 24.7181 191.943 25.4621 192.329C26.215 192.705 26.7932 193.252 27.1966 193.969C27.6089 194.677 27.8151 195.506 27.8151 196.456C27.8151 197.407 27.6089 198.231 27.1966 198.93C26.7932 199.63 26.215 200.167 25.4621 200.544C24.7181 200.911 23.8486 201.095 22.8536 201.095H19.8014L19.8014 191.75H22.8536ZM22.8536 199.845C23.9472 199.845 24.7853 199.549 25.3679 198.957C25.9506 198.366 26.2419 197.532 26.2419 196.456C26.2419 195.372 25.9506 194.525 25.3679 193.915C24.7853 193.306 23.9472 193.001 22.8536 193.001H21.3342L21.3342 199.845H22.8536ZM30.867 191.75V201.095H29.3342V191.75H30.867ZM34.4123 192.987V195.73H37.6393V196.981H34.4123V199.845H38.0426V201.095H32.8795V191.737H38.0426V192.987H34.4123ZM46.6938 194.44C46.4518 193.973 46.1157 193.624 45.6854 193.391C45.2551 193.149 44.7576 193.028 44.1929 193.028C43.5744 193.028 43.0231 193.167 42.5391 193.445C42.055 193.722 41.6741 194.117 41.3962 194.628C41.1273 195.139 40.9928 195.73 40.9928 196.403C40.9928 197.075 41.1273 197.671 41.3962 198.191C41.6741 198.702 42.055 199.096 42.5391 199.374C43.0231 199.652 43.5744 199.791 44.1929 199.791C45.0266 199.791 45.7033 199.558 46.2232 199.092C46.7431 198.626 47.0613 197.994 47.1779 197.196H43.6685V195.972H48.8183V197.169C48.7197 197.895 48.4597 198.563 48.0384 199.172C47.6261 199.782 47.0838 200.271 46.4115 200.638C45.7481 200.997 45.0086 201.176 44.1929 201.176C43.3145 201.176 42.5122 200.974 41.7861 200.571C41.0601 200.158 40.4819 199.589 40.0516 198.863C39.6303 198.137 39.4197 197.317 39.4197 196.403C39.4197 195.488 39.6303 194.668 40.0516 193.942C40.4819 193.216 41.0601 192.651 41.7861 192.248C42.5212 191.836 43.3234 191.629 44.1929 191.629C45.1879 191.629 46.0708 191.876 46.8417 192.369C47.6216 192.853 48.1863 193.543 48.5359 194.44H46.6938ZM54.5924 201.189C53.7229 201.189 52.9206 200.988 52.1856 200.584C51.4595 200.172 50.8813 199.603 50.4511 198.877C50.0298 198.142 49.8191 197.317 49.8191 196.403C49.8191 195.488 50.0298 194.668 50.4511 193.942C50.8813 193.216 51.4595 192.651 52.1856 192.248C52.9206 191.836 53.7229 191.629 54.5924 191.629C55.4708 191.629 56.2731 191.836 56.9991 192.248C57.7342 192.651 58.3123 193.216 58.7336 193.942C59.1549 194.668 59.3656 195.488 59.3656 196.403C59.3656 197.317 59.1549 198.142 58.7336 198.877C58.3123 199.603 57.7342 200.172 56.9991 200.584C56.2731 200.988 55.4708 201.189 54.5924 201.189ZM54.5924 199.858C55.2109 199.858 55.7621 199.719 56.2462 199.441C56.7302 199.155 57.1067 198.751 57.3756 198.231C57.6535 197.702 57.7924 197.093 57.7924 196.403C57.7924 195.712 57.6535 195.107 57.3756 194.587C57.1067 194.068 56.7302 193.669 56.2462 193.391C55.7621 193.113 55.2109 192.974 54.5924 192.974C53.9739 192.974 53.4226 193.113 52.9385 193.391C52.4545 193.669 52.0735 194.068 51.7956 194.587C51.5267 195.107 51.3923 195.712 51.3923 196.403C51.3923 197.093 51.5267 197.702 51.7956 198.231C52.0735 198.751 52.4545 199.155 52.9385 199.441C53.4226 199.719 53.9739 199.858 54.5924 199.858ZM63.8557 196.403C63.8557 195.488 64.0664 194.668 64.4877 193.942C64.9179 193.216 65.4961 192.651 66.2222 192.248C66.9572 191.836 67.7595 191.629 68.629 191.629C69.624 191.629 70.5069 191.876 71.2778 192.369C72.0576 192.853 72.6224 193.543 72.9719 194.44H71.1299C70.8879 193.947 70.5517 193.579 70.1214 193.337C69.6912 193.095 69.1937 192.974 68.629 192.974C68.0105 192.974 67.4592 193.113 66.9751 193.391C66.4911 193.669 66.1101 194.068 65.8323 194.587C65.5633 195.107 65.4289 195.712 65.4289 196.403C65.4289 197.093 65.5633 197.698 65.8323 198.218C66.1101 198.738 66.4911 199.141 66.9751 199.428C67.4592 199.706 68.0105 199.845 68.629 199.845C69.1937 199.845 69.6912 199.724 70.1214 199.482C70.5517 199.24 70.8879 198.872 71.1299 198.379H72.9719C72.6224 199.276 72.0576 199.966 71.2778 200.45C70.5069 200.934 69.624 201.176 68.629 201.176C67.7505 201.176 66.9483 200.974 66.2222 200.571C65.4961 200.158 64.9179 199.589 64.4877 198.863C64.0664 198.137 63.8557 197.317 63.8557 196.403ZM80.3999 199.186H76.4872L75.8149 201.095H74.2148L77.5628 191.737H79.3377L82.6857 201.095H81.0722L80.3999 199.186ZM79.9696 197.935L78.4502 193.592L76.9174 197.935H79.9696ZM88.9953 201.095L86.844 197.357H85.6742V201.095H84.1414V191.75H87.3683C88.0854 191.75 88.6905 191.876 89.1835 192.127C89.6855 192.378 90.0575 192.714 90.2995 193.135C90.5505 193.557 90.676 194.027 90.676 194.547C90.676 195.157 90.4967 195.712 90.1382 196.214C89.7886 196.707 89.2463 197.044 88.5112 197.223L90.8239 201.095H88.9953ZM85.6742 196.134H87.3683C87.942 196.134 88.3723 195.99 88.6591 195.703C88.9549 195.417 89.1028 195.031 89.1028 194.547C89.1028 194.063 88.9594 193.687 88.6726 193.418C88.3857 193.14 87.951 193.001 87.3683 193.001H85.6742V196.134ZM100.691 191.75L97.1815 201.095H95.4067L91.8839 191.75H93.5243L96.2941 199.522L99.0774 191.75H100.691ZM107.606 199.186H103.694L103.021 201.095H101.421L104.769 191.737H106.544L109.892 201.095H108.279L107.606 199.186ZM107.176 197.935L105.657 193.592L104.124 197.935H107.176ZM112.881 199.858H116.041V201.095L111.348 201.095V191.75H112.881V199.858ZM124.785 191.75V201.095H123.252V197.008H118.855V201.095H117.322V191.75H118.855V195.757H123.252V191.75H124.785ZM131.065 201.189C130.196 201.189 129.393 200.988 128.658 200.584C127.932 200.172 127.354 199.603 126.924 198.877C126.502 198.142 126.292 197.317 126.292 196.403C126.292 195.488 126.502 194.668 126.924 193.942C127.354 193.216 127.932 192.651 128.658 192.248C129.393 191.836 130.196 191.629 131.065 191.629C131.943 191.629 132.746 191.836 133.472 192.248C134.207 192.651 134.785 193.216 135.206 193.942C135.628 194.668 135.838 195.488 135.838 196.403C135.838 197.317 135.628 198.142 135.206 198.877C134.785 199.603 134.207 200.172 133.472 200.584C132.746 200.988 131.943 201.189 131.065 201.189ZM131.065 199.858C131.684 199.858 132.235 199.719 132.719 199.441C133.203 199.155 133.579 198.751 133.848 198.231C134.126 197.702 134.265 197.093 134.265 196.403C134.265 195.712 134.126 195.107 133.848 194.587C133.579 194.068 133.203 193.669 132.719 193.391C132.235 193.113 131.684 192.974 131.065 192.974C130.446 192.974 129.895 193.113 129.411 193.391C128.927 193.669 128.546 194.068 128.268 194.587C127.999 195.107 127.865 195.712 127.865 196.403C127.865 197.093 127.999 197.702 128.268 198.231C128.546 198.751 128.927 199.155 129.411 199.441C129.895 199.719 130.446 199.858 131.065 199.858Z" fill="white"/>
</g>
<defs>
<linearGradient id="paint0_linear_4330_249" x1="-143.5" y1="43.0298" x2="372.351" y2="315.401" gradientUnits="userSpaceOnUse">
<stop stop-color="#00A5F0"/>
<stop offset="1" stop-color="#00D7D7"/>
</linearGradient>
<linearGradient id="paint1_linear_4330_249" x1="139.254" y1="279.751" x2="18.5344" y2="155.014" gradientUnits="userSpaceOnUse">
<stop stop-color="white"/>
<stop offset="1" stop-color="white" stop-opacity="0"/>
</linearGradient>
<linearGradient id="paint2_linear_4330_249" x1="274.516" y1="-122.779" x2="361.756" y2="88.721" gradientUnits="userSpaceOnUse">
<stop stop-color="white"/>
<stop offset="1" stop-color="white" stop-opacity="0"/>
</linearGradient>
<linearGradient id="paint3_linear_4330_249" x1="61.3008" y1="89.7621" x2="77.4622" y2="136.526" gradientUnits="userSpaceOnUse">
<stop stop-color="#DCD59E"/>
<stop offset="1" stop-color="#CBBB82"/>
</linearGradient>
<linearGradient id="paint4_linear_4330_249" x1="40.9688" y1="91.6911" x2="61.3008" y2="123.649" gradientUnits="userSpaceOnUse">
<stop stop-color="#FBF3C0"/>
<stop offset="1" stop-color="#CCBC84"/>
</linearGradient>
<clipPath id="clip0_4330_249">
<rect x="0.865234" y="0.0958252" width="341.746" height="218.493" rx="6.72287" fill="white"/>
</clipPath>
</defs>
</svg>
